# xmcd CD database file
#
# Track frame offsets:
#	150
#	11880
#	26987
#	39340
#	52120
#	68957
#	77907
#	88847
#	100865
#	114827
#	125425
#	133362
#	144857
#	157020
#	168637
#	183415
#
# Disc length: 2617 seconds
#
# Revision: 7
# Processed by: cddbd v1.5.2PL0 Copyright (c) Steve Scherf et al.
# Submitted via: CDex 1.51
#
DISCID=e40a3710
DTITLE=Various Artist - Country Love Songs - Vol.1
DYEAR=2001
DGENRE=Country
TTITLE0=Donna Fargo - The Happiest Girl In The Whole U.S.A.
TTITLE1=Kenny Rogers - For The Good Times
TTITLE2=Johnny Paycheck - I'm Not Looking Back Anymore
TTITLE3=Bobby Bare - Tender Years
TTITLE4=Willie Nelson - I Let My Mind Wonder
TTITLE5=Waylon Jennings - Mean Old Greyhound Bus
TTITLE6=Patsy Cline - I Cried All The Way To The Altar
TTITLE7=Don Williams - On Her Way To Be A Woman
TTITLE8=Billie Jo Spears - Mr. Walker, It's All Over
TTITLE9=Johnny Cash - Cold, Clod Heart
TTITLE10=Freddy Fender - Wasted Days And Wasted Nights
TTITLE11=Oak Ridge Boys - No One Cared As Much
TTITLE12=Dolly Parton - Two Little Orphans
TTITLE13=Doe Watson - Tom Dooley
TTITLE14=Willie Nelson - And So Will You My Love
TTITLE15=Kenny Rogers - Sleep Comes Easy
EXTD=YEAR: 2001
EXTT0=
EXTT1=
EXTT2=
EXTT3=
EXTT4=
EXTT5=
EXTT6=
EXTT7=
EXTT8=
EXTT9=
EXTT10=
EXTT11=
EXTT12=
EXTT13=
EXTT14=
EXTT15=
PLAYORDER=
